PathFileType	4	(X/Y/Z)	RBDS019static.trc
DataRate	CameraRate	NumFrames	NumMarkers	Units	OrigDataRate	OrigDataStartFrame	OrigNumFrames
150.000000	150.000000	4	48	mm	150.000000	0	150
Frame#	Time	L.Ankle			L.Ankle.Medial			L.ASIS			L.GTR			L.Heel.Bottom			L.Heel.Lateral			L.Heel.Top			L.HF			L.Iliac.Crest			L.Knee			L.Knee.Medial			L.MT1			L.MT2			L.MT5			L.PSIS			L.Shank.Bottom.Lateral			L.Shank.Bottom.Medial			L.Shank.Top.Lateral			L.Shank.Top.Medial			L.Thigh.Bottom.Lateral			L.Thigh.Bottom.Medial			L.Thigh.Top.Lateral			L.Thigh.Top.Medial			L.TT			R.Ankle			R.Ankle.Medial			R.ASIS			R.GTR			R.Heel.Bottom			R.Heel.Lateral			R.Heel.Top			R.HF			R.Iliac.Crest			R.Knee			R.Knee.Medial			R.MT1			R.MT2			R.MT5			R.PSIS			R.Shank.Bottom.Lateral			R.Shank.Bottom.Medial			R.Shank.Top.Lateral			R.Shank.Top.Medial			R.Thigh.Bottom.Lateral			R.Thigh.Bottom.Medial			R.Thigh.Top.Lateral			R.Thigh.Top.Medial			R.TT			
		X1	Y1	Z1	X2	Y2	Z2	X3	Y3	Z3	X4	Y4	Z4	X5	Y5	Z5	X6	Y6	Z6	X7	Y7	Z7	X8	Y8	Z8	X9	Y9	Z9	X10	Y10	Z10	X11	Y11	Z11	X12	Y12	Z12	X13	Y13	Z13	X14	Y14	Z14	X15	Y15	Z15	X16	Y16	Z16	X17	Y17	Z17	X18	Y18	Z18	X19	Y19	Z19	X20	Y20	Z20	X21	Y21	Z21	X22	Y22	Z22	X23	Y23	Z23	X24	Y24	Z24	X25	Y25	Z25	X26	Y26	Z26	X27	Y27	Z27	X28	Y28	Z28	X29	Y29	Z29	X30	Y30	Z30	X31	Y31	Z31	X32	Y32	Z32	X33	Y33	Z33	X34	Y34	Z34	X35	Y35	Z35	X36	Y36	Z36	X37	Y37	Z37	X38	Y38	Z38	X39	Y39	Z39	X40	Y40	Z40	X41	Y41	Z41	X42	Y42	Z42	X43	Y43	Z43	X44	Y44	Z44	X45	Y45	Z45	X46	Y46	Z46	X47	Y47	Z47	X48	Y48	Z48	

1	0	710.459228515625	94.59498596191406	1046.750610351563	717.8685913085938	101.9104461669922	1126.819946289063	832.4104614257813	971.1956176757813	1114.376831054688	769.0562133789063	891.0476684570313	1052.164428710938	635.2498779296875	36.41710662841797	1081.835571289063	666.8234252929688	56.43546676635742	1040.59814453125	643.6975708007813	84.33453369140625	1083.079833984375	720.4495239257813	441.987060546875	1037.01953125	773.0248413085938	1025.15673828125	1073.556274414063	725.119140625	500.5806579589844	1043.841430664063	706.8659057617188	481.0845642089844	1166.235229492188	836.6780395507813	54.21029663085938	1127.637329101563	845.8212890625	67.44068908691406	1084.48193359375	812.5358276367188	48.33376693725586	1020.976135253906	657.8590087890625	994.7777709960938	1167.91943359375	699.904541015625	176.9311981201172	1037.23095703125	661.0521240234375	172.5660858154297	1070.074340820313	687.0697021484375	255.9837036132813	1026.430297851563	648.4774780273438	255.8451995849609	1062.47900390625	725.552978515625	613.2813110351563	1036.864135742188	662.7674560546875	621.0257568359375	1074.57373046875	735.8716430664063	722.4993896484375	1034.055053710938	676.5926513671875	729.4990844726563	1071.207641601563	769.7646484375	426.0225524902344	1090.44091796875	706.3240966796875	99.01667785644531	1407.062866210938	723.6896362304688	109.3511657714844	1327.577880859375	816.9212646484375	972.678955078125	1350.766845703125	745.421142578125	898.3693237304688	1401.88916015625	634.5706787109375	40.02616119384766	1368.181762695313	661.9231567382813	57.32168197631836	1407.336669921875	644.1329956054688	84.97279357910156	1365.909301757813	715.8624877929688	451.3034362792969	1404.822509765625	759.9962768554688	1036.334350585938	1368.460571289063	719.0883178710938	511.7142028808594	1397.70263671875	722.897705078125	485.0276184082031	1274.681518554688	832.3901977539063	58.73044967651367	1328.427856445313	846.61083984375	69.88780212402344	1370.954345703125	805.7089233398438	47.59657669067383	1434.526245117188	654.891357421875	1003.895812988281	1269.592651367188	698.3137817382813	171.0096435546875	1411.9658203125	659.3074951171875	168.769287109375	1372.208129882813	684.1549072265625	250.6251220703125	1420.141967773438	647.6339721679688	247.9478302001953	1380.029541015625	708.1254272460938	607.2968139648438	1405.35888671875	657.3682250976563	610.4894409179688	1354.77783203125	709.7271118164063	717.6842651367188	1409.861572265625	658.824462890625	720.2280883789063	1364.276611328125	768.9852905273438	429.7183532714844	1352.891357421875	
2	0.006666666666666667	710.4544677734375	94.59909057617188	1046.747680664063	717.8671264648438	101.9123458862305	1126.824096679688	832.3961791992188	971.1929931640625	1114.384399414063	769.046875	891.0506591796875	1052.168823242188	635.2511596679688	36.41002655029297	1081.843017578125	666.8180541992188	56.43024444580078	1040.600952148438	643.7001953125	84.33378601074219	1083.086059570313	720.4541625976563	441.9896240234375	1037.007446289063	772.99072265625	1025.14306640625	1073.55712890625	725.1116333007813	500.5824279785156	1043.845581054688	706.8668823242188	481.0789794921875	1166.23095703125	836.685302734375	54.21016311645508	1127.6357421875	845.8208618164063	67.43956756591797	1084.482055664063	812.5397338867188	48.33044052124023	1020.962097167969	657.8431396484375	994.77294921875	1167.916015625	699.8948364257813	176.9362945556641	1037.231689453125	661.0471801757813	172.5613098144531	1070.073608398438	687.0606079101563	255.9890899658203	1026.4423828125	648.479736328125	255.8483734130859	1062.48388671875	725.5342407226563	613.2789306640625	1036.865234375	662.7607421875	621.0117797851563	1074.586791992188	735.8677978515625	722.4924926757813	1034.06298828125	676.58837890625	729.4911499023438	1071.208251953125	769.7650756835938	426.020263671875	1090.44189453125	706.3275146484375	99.00971221923828	1407.062255859375	723.6864624023438	109.3521575927734	1327.567626953125	816.899658203125	972.6826782226563	1350.770629882813	745.3925170898438	898.3711547851563	1401.885131835938	634.5824584960938	40.02653121948242	1368.1806640625	661.9146118164063	57.32769393920898	1407.33740234375	644.1350708007813	84.97182464599609	1365.911987304688	715.8438110351563	451.3025207519531	1404.831176757813	759.963134765625	1036.323364257813	1368.465087890625	719.0725708007813	511.7058410644531	1397.702270507813	722.8943481445313	485.0235290527344	1274.691284179688	832.3960571289063	58.7425422668457	1328.423950195313	846.6043701171875	69.88479614257813	1370.96240234375	805.7049560546875	47.62197494506836	1434.535766601563	654.8593139648438	1003.894287109375	1269.593627929688	698.3076782226563	171.005859375	1411.952880859375	659.3074340820313	168.7740325927734	1372.205444335938	684.1509399414063	250.6228790283203	1420.14404296875	647.63720703125	247.9438018798828	1380.032470703125	708.1014404296875	607.3015747070313	1405.37109375	657.3389282226563	610.4808349609375	1354.7744140625	709.6964111328125	717.688720703125	1409.867797851563	658.8048706054688	720.2378540039063	1364.272583007813	768.9780883789063	429.7109985351563	1352.90087890625	
3	0.01333333333333333	710.4503784179688	94.59368133544922	1046.754638671875	717.86328125	101.9088134765625	1126.824829101563	832.3711547851563	971.192138671875	1114.386108398438	769.0345458984375	891.0535278320313	1052.172485351563	635.2446899414063	36.42266464233398	1081.825073242188	666.8264770507813	56.43545913696289	1040.6005859375	643.695068359375	84.33187866210938	1083.08837890625	720.4342041015625	441.9851379394531	1037.011352539063	772.9688110351563	1025.140991210938	1073.557861328125	725.1109619140625	500.5818481445313	1043.851928710938	706.8575439453125	481.0777893066406	1166.232299804688	836.6928100585938	54.20878982543945	1127.63134765625	845.8163452148438	67.44703674316406	1084.484741210938	812.5443115234375	48.33454513549805	1020.980407714844	657.8154907226563	994.7764282226563	1167.908203125	699.90283203125	176.9343414306641	1037.2275390625	661.049072265625	172.5616912841797	1070.073852539063	687.0654907226563	255.9850616455078	1026.435180664063	648.4776611328125	255.8448791503906	1062.486083984375	725.5426025390625	613.2825317382813	1036.869018554688	662.7538452148438	621.0094604492188	1074.586059570313	735.8634643554688	722.4952392578125	1034.067138671875	676.5794677734375	729.4938354492188	1071.203002929688	769.7622680664063	426.0247192382813	1090.442260742188	706.3241577148438	99.01316833496094	1407.059326171875	723.699462890625	109.3499069213867	1327.5810546875	816.8800048828125	972.6865234375	1350.780639648438	745.368408203125	898.3804321289063	1401.900268554688	634.5775146484375	40.0209846496582	1368.184326171875	661.9202880859375	57.31865692138672	1407.338256835938	644.1351928710938	84.97383880615234	1365.921630859375	715.8268432617188	451.293701171875	1404.831420898438	759.9323120117188	1036.33056640625	1368.46875	719.0512084960938	511.7056274414063	1397.716064453125	722.8936157226563	485.0247192382813	1274.698852539063	832.3887329101563	58.73763656616211	1328.4287109375	846.6163940429688	69.87936401367188	1370.968994140625	805.7103271484375	47.6201286315918	1434.537475585938	654.83349609375	1003.895324707031	1269.602661132813	698.3060913085938	171.0102233886719	1411.965576171875	659.3042602539063	168.7660522460938	1372.202514648438	684.1409912109375	250.6186828613281	1420.153930664063	647.6292724609375	247.9449005126953	1380.027587890625	708.0789184570313	607.2996215820313	1405.37890625	657.3086547851563	610.4898681640625	1354.784423828125	709.6651000976563	717.6951293945313	1409.872802734375	658.7734375	720.2320556640625	1364.26806640625	768.970703125	429.7135620117188	1352.905029296875	
4	0.02	710.4487915039063	94.59500122070313	1046.749267578125	717.87060546875	101.9085388183594	1126.8271484375	832.3634643554688	971.1917724609375	1114.397216796875	769.0117797851563	891.0545043945313	1052.176879882813	635.2470092773438	36.41109466552734	1081.843139648438	666.8162231445313	56.42979431152344	1040.599731445313	643.7046508789063	84.33199310302734	1083.081909179688	720.45361328125	441.9813842773438	1037.028198242188	772.9408569335938	1025.130615234375	1073.556030273438	725.1095581054688	500.5685424804688	1043.854858398438	706.8474731445313	481.0715637207031	1166.233520507813	836.6907958984375	54.20368576049805	1127.634765625	845.8184814453125	67.44684600830078	1084.481323242188	812.544189453125	48.33205795288086	1020.972412109375	657.802490234375	994.769287109375	1167.904907226563	699.898193359375	176.9395294189453	1037.23095703125	661.048828125	172.562744140625	1070.080688476563	687.0616455078125	255.9855499267578	1026.437866210938	648.4758911132813	255.8385925292969	1062.489135742188	725.529296875	613.2713012695313	1036.87158203125	662.7555541992188	621.0028686523438	1074.58837890625	735.8494873046875	722.4851684570313	1034.074462890625	676.5746459960938	729.4906616210938	1071.204467773438	769.754638671875	426.0076599121094	1090.447387695313	706.3281860351563	99.00321960449219	1407.05029296875	723.6896362304688	109.3545761108398	1327.578002929688	816.8500366210938	972.6859130859375	1350.778564453125	745.3478393554688	898.3766479492188	1401.9033203125	634.576171875	40.0195426940918	1368.180541992188	661.9253540039063	57.3125	1407.336669921875	644.1483764648438	84.96305084228516	1365.910888671875	715.8212890625	451.2955932617188	1404.830200195313	759.8965454101563	1036.329833984375	1368.476806640625	719.0427856445313	511.7008361816406	1397.717529296875	722.87451171875	485.0280456542969	1274.706420898438	832.3921508789063	58.72937393188477	1328.430419921875	846.5988159179688	69.88783264160156	1370.965698242188	805.7061767578125	47.61276245117188	1434.543579101563	654.8080444335938	1003.897277832031	1269.593505859375	698.2996826171875	170.9951019287109	1411.955810546875	659.302490234375	168.7651214599609	1372.2021484375	684.1328735351563	250.6117706298828	1420.1513671875	647.625	247.9311828613281	1380.035522460938	708.048828125	607.2984008789063	1405.384155273438	657.2872314453125	610.4857788085938	1354.778442382813	709.6416015625	717.686279296875	1409.880126953125	658.7572631835938	720.2354736328125	1364.274291992188	768.9612426757813	429.7102966308594	1352.919311523438	
